<svg width="1280" height="320" viewBox="0 0 1280 320" fill="none" xmlns="http://www.w3.org/2000/svg">
<g clip-path="url(#clip0)">
<rect width="1280" height="320" fill="url(#paint0_linear)"/>
<path d="M1073.59 224C1083.25 224 1091.33 217.114 1093.18 208H1053.99C1055.85 217.114 1063.93 224 1073.59 224V224Z" fill="#1887C7"/>
<path d="M1110.98 159.995C1110.96 159.995 1110.94 160 1110.92 160C1090.34 160 1073.59 143.253 1073.59 122.667C1073.59 117.008 1074.89 111.658 1077.15 106.848C1075.98 106.736 1074.79 106.667 1073.59 106.667C1052.97 106.667 1036.25 123.381 1036.25 144V158.869C1036.25 169.424 1031.63 179.387 1023.52 186.245C1020.81 188.555 1019.61 192.234 1020.58 195.824C1021.71 200 1025.84 202.667 1030.17 202.667H1116.97C1121.52 202.667 1125.8 199.723 1126.72 195.27C1127.44 191.824 1126.21 188.384 1123.54 186.139C1115.78 179.638 1111.3 170.085 1110.98 159.995V159.995Z" fill="#1887C7"/>
<path d="M1137.59 122.667C1137.59 137.395 1125.65 149.333 1110.92 149.333C1096.19 149.333 1084.25 137.395 1084.25 122.667C1084.25 107.939 1096.19 96 1110.92 96C1125.65 96 1137.59 107.939 1137.59 122.667Z" fill="#FF7704"/>
<g clip-path="url(#clip1)">
<path fill-rule="evenodd" clip-rule="evenodd" d="M621.115 41.4445L864.848 285.178L285.883 1287.39L42.3272 1043.84" fill="white" fill-opacity="0.1"/>
<path fill-rule="evenodd" clip-rule="evenodd" d="M128.672 27.255L369.786 268.208L-33.8693 967.65L-276.888 724.631L-276.885 724.625L-518.731 482.779L60.0566 -519.613L303.79 -275.88L128.673 27.2554L128.672 27.255Z" fill="white" fill-opacity="0.1"/>
</g>
<path d="M173.064 159.08C175.992 159.704 178.344 161.168 180.12 163.472C181.896 165.728 182.784 168.32 182.784 171.248C182.784 175.472 181.296 178.832 178.32 181.328C175.392 183.776 171.288 185 166.008 185H142.464V134.456H165.216C170.352 134.456 174.36 135.632 177.24 137.984C180.168 140.336 181.632 143.528 181.632 147.56C181.632 150.536 180.84 153.008 179.256 154.976C177.72 156.944 175.656 158.312 173.064 159.08ZM154.776 154.904H162.84C164.856 154.904 166.392 154.472 167.448 153.608C168.552 152.696 169.104 151.376 169.104 149.648C169.104 147.92 168.552 146.6 167.448 145.688C166.392 144.776 164.856 144.32 162.84 144.32H154.776V154.904ZM163.848 175.064C165.912 175.064 167.496 174.608 168.6 173.696C169.752 172.736 170.328 171.368 170.328 169.592C170.328 167.816 169.728 166.424 168.528 165.416C167.376 164.408 165.768 163.904 163.704 163.904H154.776V175.064H163.848ZM187.477 164.84C187.477 160.712 188.245 157.088 189.781 153.968C191.365 150.848 193.501 148.448 196.189 146.768C198.877 145.088 201.877 144.248 205.189 144.248C208.021 144.248 210.493 144.824 212.605 145.976C214.765 147.128 216.421 148.64 217.573 150.512V144.824H229.885V185H217.573V179.312C216.373 181.184 214.693 182.696 212.533 183.848C210.421 185 207.949 185.576 205.117 185.576C201.853 185.576 198.877 184.736 196.189 183.056C193.501 181.328 191.365 178.904 189.781 175.784C188.245 172.616 187.477 168.968 187.477 164.84ZM217.573 164.912C217.573 161.84 216.709 159.416 214.981 157.64C213.301 155.864 211.237 154.976 208.789 154.976C206.341 154.976 204.253 155.864 202.525 157.64C200.845 159.368 200.005 161.768 200.005 164.84C200.005 167.912 200.845 170.36 202.525 172.184C204.253 173.96 206.341 174.848 208.789 174.848C211.237 174.848 213.301 173.96 214.981 172.184C216.709 170.408 217.573 167.984 217.573 164.912ZM236.344 164.912C236.344 160.736 237.184 157.088 238.864 153.968C240.592 150.848 242.968 148.448 245.992 146.768C249.064 145.088 252.568 144.248 256.504 144.248C261.544 144.248 265.744 145.568 269.104 148.208C272.512 150.848 274.744 154.568 275.8 159.368H262.696C261.592 156.296 259.456 154.76 256.288 154.76C254.032 154.76 252.232 155.648 250.888 157.424C249.544 159.152 248.872 161.648 248.872 164.912C248.872 168.176 249.544 170.696 250.888 172.472C252.232 174.2 254.032 175.064 256.288 175.064C259.456 175.064 261.592 173.528 262.696 170.456H275.8C274.744 175.16 272.512 178.856 269.104 181.544C265.696 184.232 261.496 185.576 256.504 185.576C252.568 185.576 249.064 184.736 245.992 183.056C242.968 181.376 240.592 178.976 238.864 175.856C237.184 172.736 236.344 169.088 236.344 164.912ZM306.938 185L294.698 168.152V185H282.386V131.72H294.698V161.168L306.866 144.824H322.058L305.354 164.984L322.202 185H306.938Z" fill="#1887C7"/>
<path d="M364.766 164.264C364.766 165.416 364.694 166.616 364.55 167.864H336.686C336.878 170.36 337.67 172.28 339.062 173.624C340.502 174.92 342.254 175.568 344.318 175.568C347.39 175.568 349.526 174.272 350.726 171.68H363.83C363.158 174.32 361.934 176.696 360.158 178.808C358.43 180.92 356.246 182.576 353.606 183.776C350.966 184.976 348.014 185.576 344.75 185.576C340.814 185.576 337.31 184.736 334.238 183.056C331.166 181.376 328.766 178.976 327.038 175.856C325.31 172.736 324.446 169.088 324.446 164.912C324.446 160.736 325.286 157.088 326.966 153.968C328.694 150.848 331.094 148.448 334.166 146.768C337.238 145.088 340.766 144.248 344.75 144.248C348.638 144.248 352.094 145.064 355.118 146.696C358.142 148.328 360.494 150.656 362.174 153.68C363.902 156.704 364.766 160.232 364.766 164.264ZM352.166 161.024C352.166 158.912 351.446 157.232 350.006 155.984C348.566 154.736 346.766 154.112 344.606 154.112C342.542 154.112 340.79 154.712 339.35 155.912C337.958 157.112 337.094 158.816 336.758 161.024H352.166ZM395.741 144.392C400.445 144.392 404.189 145.928 406.973 149C409.805 152.024 411.221 156.2 411.221 161.528V185H398.981V163.184C398.981 160.496 398.285 158.408 396.893 156.92C395.501 155.432 393.629 154.688 391.277 154.688C388.925 154.688 387.053 155.432 385.661 156.92C384.269 158.408 383.573 160.496 383.573 163.184V185H371.261V144.824H383.573V150.152C384.821 148.376 386.501 146.984 388.613 145.976C390.725 144.92 393.101 144.392 395.741 144.392ZM417.329 164.84C417.329 160.712 418.097 157.088 419.633 153.968C421.217 150.848 423.353 148.448 426.041 146.768C428.729 145.088 431.729 144.248 435.041 144.248C437.681 144.248 440.081 144.8 442.241 145.904C444.449 147.008 446.177 148.496 447.425 150.368V131.72H459.737V185H447.425V179.24C446.273 181.16 444.617 182.696 442.457 183.848C440.345 185 437.873 185.576 435.041 185.576C431.729 185.576 428.729 184.736 426.041 183.056C423.353 181.328 421.217 178.904 419.633 175.784C418.097 172.616 417.329 168.968 417.329 164.84ZM447.425 164.912C447.425 161.84 446.561 159.416 444.833 157.64C443.153 155.864 441.089 154.976 438.641 154.976C436.193 154.976 434.105 155.864 432.377 157.64C430.697 159.368 429.857 161.768 429.857 164.84C429.857 167.912 430.697 170.36 432.377 172.184C434.105 173.96 436.193 174.848 438.641 174.848C441.089 174.848 443.153 173.96 444.833 172.184C446.561 170.408 447.425 167.984 447.425 164.912Z" fill="#FF7704"/>
</g>
<defs>
<linearGradient id="paint0_linear" x1="1280" y1="3.8147e-05" x2="496.217" y2="810.726" gradientUnits="userSpaceOnUse">
<stop stop-color="#12154C"/>
<stop offset="1" stop-color="#172671"/>
</linearGradient>
<clipPath id="clip0">
<rect width="1280" height="320" fill="white"/>
</clipPath>
<clipPath id="clip1">
<rect width="1487.75" height="1487.75" fill="white" transform="translate(173 -668) rotate(45)"/>
</clipPath>
</defs>
</svg>
