<svg width="1280" height="320" viewBox="0 0 1280 320" fill="none" xmlns="http://www.w3.org/2000/svg">
<g clip-path="url(#clip0)">
<rect width="1280" height="320" fill="url(#paint0_linear)"/>
<path d="M1073.59 224C1083.25 224 1091.33 217.114 1093.18 208H1053.99C1055.85 217.114 1063.93 224 1073.59 224V224Z" fill="#1887C7"/>
<path d="M1110.98 159.995C1110.96 159.995 1110.94 160 1110.92 160C1090.34 160 1073.59 143.253 1073.59 122.667C1073.59 117.008 1074.89 111.658 1077.15 106.848C1075.98 106.736 1074.79 106.667 1073.59 106.667C1052.97 106.667 1036.25 123.381 1036.25 144V158.869C1036.25 169.424 1031.63 179.387 1023.52 186.245C1020.81 188.555 1019.61 192.234 1020.58 195.824C1021.71 200 1025.84 202.667 1030.17 202.667H1116.97C1121.52 202.667 1125.8 199.723 1126.72 195.27C1127.44 191.824 1126.21 188.384 1123.54 186.139C1115.78 179.638 1111.3 170.085 1110.98 159.995V159.995Z" fill="#1887C7"/>
<path d="M1137.59 122.667C1137.59 137.395 1125.65 149.333 1110.92 149.333C1096.19 149.333 1084.25 137.395 1084.25 122.667C1084.25 107.939 1096.19 96 1110.92 96C1125.65 96 1137.59 107.939 1137.59 122.667Z" fill="#FF7704"/>
<g clip-path="url(#clip1)">
<path fill-rule="evenodd" clip-rule="evenodd" d="M621.115 41.4445L864.848 285.178L285.883 1287.39L42.3272 1043.84" fill="white" fill-opacity="0.1"/>
<path fill-rule="evenodd" clip-rule="evenodd" d="M128.672 27.255L369.786 268.208L-33.8693 967.65L-276.888 724.631L-276.885 724.625L-518.731 482.779L60.0566 -519.613L303.79 -275.88L128.673 27.2554L128.672 27.255Z" fill="white" fill-opacity="0.1"/>
</g>
<path d="M175.368 134.456V144.32H154.776V154.976H170.184V164.552H154.776V185H142.464V134.456H175.368ZM194.151 151.52C195.591 149.312 197.391 147.584 199.551 146.336C201.711 145.04 204.111 144.392 206.751 144.392V157.424H203.367C200.295 157.424 197.991 158.096 196.455 159.44C194.919 160.736 194.151 163.04 194.151 166.352V185H181.839V144.824H194.151V151.52ZM230.924 185.576C226.988 185.576 223.436 184.736 220.268 183.056C217.148 181.376 214.676 178.976 212.852 175.856C211.076 172.736 210.188 169.088 210.188 164.912C210.188 160.784 211.1 157.16 212.924 154.04C214.748 150.872 217.244 148.448 220.412 146.768C223.58 145.088 227.132 144.248 231.068 144.248C235.004 144.248 238.556 145.088 241.724 146.768C244.892 148.448 247.388 150.872 249.212 154.04C251.036 157.16 251.948 160.784 251.948 164.912C251.948 169.04 251.012 172.688 249.14 175.856C247.316 178.976 244.796 181.376 241.58 183.056C238.412 184.736 234.86 185.576 230.924 185.576ZM230.924 174.92C233.276 174.92 235.268 174.056 236.9 172.328C238.58 170.6 239.42 168.128 239.42 164.912C239.42 161.696 238.604 159.224 236.972 157.496C235.388 155.768 233.42 154.904 231.068 154.904C228.668 154.904 226.676 155.768 225.092 157.496C223.508 159.176 222.716 161.648 222.716 164.912C222.716 168.128 223.484 170.6 225.02 172.328C226.604 174.056 228.572 174.92 230.924 174.92ZM282.96 144.392C287.664 144.392 291.408 145.928 294.192 149C297.024 152.024 298.44 156.2 298.44 161.528V185H286.2V163.184C286.2 160.496 285.504 158.408 284.112 156.92C282.72 155.432 280.848 154.688 278.496 154.688C276.144 154.688 274.272 155.432 272.88 156.92C271.488 158.408 270.792 160.496 270.792 163.184V185H258.48V144.824H270.792V150.152C272.04 148.376 273.72 146.984 275.832 145.976C277.944 144.92 280.32 144.392 282.96 144.392ZM329.387 174.56V185H323.123C318.659 185 315.179 183.92 312.683 181.76C310.187 179.552 308.939 175.976 308.939 171.032V155.048H304.043V144.824H308.939V135.032H321.251V144.824H329.315V155.048H321.251V171.176C321.251 172.376 321.539 173.24 322.115 173.768C322.691 174.296 323.651 174.56 324.995 174.56H329.387Z" fill="#1887C7"/>
<path d="M374.117 164.264C374.117 165.416 374.045 166.616 373.901 167.864H346.037C346.229 170.36 347.021 172.28 348.413 173.624C349.853 174.92 351.605 175.568 353.669 175.568C356.741 175.568 358.877 174.272 360.077 171.68H373.181C372.509 174.32 371.285 176.696 369.509 178.808C367.781 180.92 365.597 182.576 362.957 183.776C360.317 184.976 357.365 185.576 354.101 185.576C350.165 185.576 346.661 184.736 343.589 183.056C340.517 181.376 338.117 178.976 336.389 175.856C334.661 172.736 333.797 169.088 333.797 164.912C333.797 160.736 334.637 157.088 336.317 153.968C338.045 150.848 340.445 148.448 343.517 146.768C346.589 145.088 350.117 144.248 354.101 144.248C357.989 144.248 361.445 145.064 364.469 146.696C367.493 148.328 369.845 150.656 371.525 153.68C373.253 156.704 374.117 160.232 374.117 164.264ZM361.517 161.024C361.517 158.912 360.797 157.232 359.357 155.984C357.917 154.736 356.117 154.112 353.957 154.112C351.893 154.112 350.141 154.712 348.701 155.912C347.309 157.112 346.445 158.816 346.109 161.024H361.517ZM405.092 144.392C409.796 144.392 413.54 145.928 416.324 149C419.156 152.024 420.572 156.2 420.572 161.528V185H408.332V163.184C408.332 160.496 407.636 158.408 406.244 156.92C404.852 155.432 402.98 154.688 400.628 154.688C398.276 154.688 396.404 155.432 395.012 156.92C393.62 158.408 392.924 160.496 392.924 163.184V185H380.612V144.824H392.924V150.152C394.172 148.376 395.852 146.984 397.964 145.976C400.076 144.92 402.452 144.392 405.092 144.392ZM426.68 164.84C426.68 160.712 427.448 157.088 428.984 153.968C430.568 150.848 432.704 148.448 435.392 146.768C438.08 145.088 441.08 144.248 444.392 144.248C447.032 144.248 449.432 144.8 451.592 145.904C453.8 147.008 455.528 148.496 456.776 150.368V131.72H469.088V185H456.776V179.24C455.624 181.16 453.968 182.696 451.808 183.848C449.696 185 447.224 185.576 444.392 185.576C441.08 185.576 438.08 184.736 435.392 183.056C432.704 181.328 430.568 178.904 428.984 175.784C427.448 172.616 426.68 168.968 426.68 164.84ZM456.776 164.912C456.776 161.84 455.912 159.416 454.184 157.64C452.504 155.864 450.44 154.976 447.992 154.976C445.544 154.976 443.456 155.864 441.728 157.64C440.048 159.368 439.208 161.768 439.208 164.84C439.208 167.912 440.048 170.36 441.728 172.184C443.456 173.96 445.544 174.848 447.992 174.848C450.44 174.848 452.504 173.96 454.184 172.184C455.912 170.408 456.776 167.984 456.776 164.912Z" fill="#FF7704"/>
</g>
<defs>
<linearGradient id="paint0_linear" x1="1280" y1="3.8147e-05" x2="496.217" y2="810.726" gradientUnits="userSpaceOnUse">
<stop stop-color="#12154C"/>
<stop offset="1" stop-color="#172671"/>
</linearGradient>
<clipPath id="clip0">
<rect width="1280" height="320" fill="white"/>
</clipPath>
<clipPath id="clip1">
<rect width="1487.75" height="1487.75" fill="white" transform="translate(173 -668) rotate(45)"/>
</clipPath>
</defs>
</svg>
