<svg width="1280" height="320" viewBox="0 0 1280 320" fill="none" xmlns="http://www.w3.org/2000/svg">
<g clip-path="url(#clip0)">
<rect width="1280" height="320" fill="url(#paint0_linear)"/>
<path d="M1073.59 224C1083.25 224 1091.33 217.114 1093.18 208H1053.99C1055.85 217.114 1063.93 224 1073.59 224V224Z" fill="#1887C7"/>
<path d="M1110.98 159.995C1110.96 159.995 1110.94 160 1110.92 160C1090.34 160 1073.59 143.253 1073.59 122.667C1073.59 117.008 1074.89 111.658 1077.15 106.848C1075.98 106.736 1074.79 106.667 1073.59 106.667C1052.97 106.667 1036.25 123.381 1036.25 144V158.869C1036.25 169.424 1031.63 179.387 1023.52 186.245C1020.81 188.555 1019.61 192.234 1020.58 195.824C1021.71 200 1025.84 202.667 1030.17 202.667H1116.97C1121.52 202.667 1125.8 199.723 1126.72 195.27C1127.44 191.824 1126.21 188.384 1123.54 186.139C1115.78 179.638 1111.3 170.085 1110.98 159.995V159.995Z" fill="#1887C7"/>
<path d="M1137.59 122.667C1137.59 137.395 1125.65 149.333 1110.92 149.333C1096.19 149.333 1084.25 137.395 1084.25 122.667C1084.25 107.939 1096.19 96 1110.92 96C1125.65 96 1137.59 107.939 1137.59 122.667Z" fill="#FF6501"/>
<path d="M212.016 134.456L198.84 185H183.936L175.872 151.736L167.52 185H152.616L139.8 134.456H152.976L160.248 171.248L169.248 134.456H182.784L191.424 171.248L198.768 134.456H212.016ZM256.063 164.264C256.063 165.416 255.991 166.616 255.847 167.864H227.983C228.175 170.36 228.967 172.28 230.359 173.624C231.799 174.92 233.551 175.568 235.615 175.568C238.687 175.568 240.823 174.272 242.023 171.68H255.127C254.455 174.32 253.231 176.696 251.455 178.808C249.727 180.92 247.543 182.576 244.903 183.776C242.263 184.976 239.311 185.576 236.047 185.576C232.111 185.576 228.607 184.736 225.535 183.056C222.463 181.376 220.063 178.976 218.335 175.856C216.607 172.736 215.743 169.088 215.743 164.912C215.743 160.736 216.583 157.088 218.263 153.968C219.991 150.848 222.391 148.448 225.463 146.768C228.535 145.088 232.063 144.248 236.047 144.248C239.935 144.248 243.391 145.064 246.415 146.696C249.439 148.328 251.791 150.656 253.471 153.68C255.199 156.704 256.063 160.232 256.063 164.264ZM243.463 161.024C243.463 158.912 242.743 157.232 241.303 155.984C239.863 154.736 238.063 154.112 235.903 154.112C233.839 154.112 232.087 154.712 230.647 155.912C229.255 157.112 228.391 158.816 228.055 161.024H243.463ZM274.87 150.512C276.022 148.64 277.678 147.128 279.838 145.976C281.998 144.824 284.47 144.248 287.254 144.248C290.566 144.248 293.566 145.088 296.254 146.768C298.942 148.448 301.054 150.848 302.59 153.968C304.174 157.088 304.966 160.712 304.966 164.84C304.966 168.968 304.174 172.616 302.59 175.784C301.054 178.904 298.942 181.328 296.254 183.056C293.566 184.736 290.566 185.576 287.254 185.576C284.422 185.576 281.95 185.024 279.838 183.92C277.726 182.768 276.07 181.256 274.87 179.384V185H262.558V131.72H274.87V150.512ZM292.438 164.84C292.438 161.768 291.574 159.368 289.846 157.64C288.166 155.864 286.078 154.976 283.582 154.976C281.134 154.976 279.046 155.864 277.318 157.64C275.638 159.416 274.798 161.84 274.798 164.912C274.798 167.984 275.638 170.408 277.318 172.184C279.046 173.96 281.134 174.848 283.582 174.848C286.03 174.848 288.118 173.96 289.846 172.184C291.574 170.36 292.438 167.912 292.438 164.84ZM365.203 150.728C365.203 153.656 364.531 156.344 363.187 158.792C361.843 161.192 359.779 163.136 356.995 164.624C354.211 166.112 350.755 166.856 346.627 166.856H338.995V185H326.683V134.456H346.627C350.659 134.456 354.067 135.152 356.851 136.544C359.635 137.936 361.723 139.856 363.115 142.304C364.507 144.752 365.203 147.56 365.203 150.728ZM345.691 157.064C348.043 157.064 349.795 156.512 350.947 155.408C352.099 154.304 352.675 152.744 352.675 150.728C352.675 148.712 352.099 147.152 350.947 146.048C349.795 144.944 348.043 144.392 345.691 144.392H338.995V157.064H345.691ZM411.284 144.824V185H398.972V179.528C397.724 181.304 396.02 182.744 393.86 183.848C391.748 184.904 389.396 185.432 386.804 185.432C383.732 185.432 381.02 184.76 378.668 183.416C376.316 182.024 374.492 180.032 373.196 177.44C371.9 174.848 371.252 171.8 371.252 168.296V144.824H383.492V166.64C383.492 169.328 384.188 171.416 385.58 172.904C386.972 174.392 388.844 175.136 391.196 175.136C393.596 175.136 395.492 174.392 396.884 172.904C398.276 171.416 398.972 169.328 398.972 166.64V144.824H411.284ZM436.472 185.576C432.968 185.576 429.848 184.976 427.112 183.776C424.376 182.576 422.216 180.944 420.632 178.88C419.048 176.768 418.16 174.416 417.968 171.824H430.136C430.28 173.216 430.928 174.344 432.08 175.208C433.232 176.072 434.648 176.504 436.328 176.504C437.864 176.504 439.04 176.216 439.856 175.64C440.72 175.016 441.152 174.224 441.152 173.264C441.152 172.112 440.552 171.272 439.352 170.744C438.152 170.168 436.208 169.544 433.52 168.872C430.64 168.2 428.24 167.504 426.32 166.784C424.4 166.016 422.744 164.84 421.352 163.256C419.96 161.624 419.264 159.44 419.264 156.704C419.264 154.4 419.888 152.312 421.136 150.44C422.432 148.52 424.304 147.008 426.752 145.904C429.248 144.8 432.2 144.248 435.608 144.248C440.648 144.248 444.608 145.496 447.488 147.992C450.416 150.488 452.096 153.8 452.528 157.928H441.152C440.96 156.536 440.336 155.432 439.28 154.616C438.272 153.8 436.928 153.392 435.248 153.392C433.808 153.392 432.704 153.68 431.936 154.256C431.168 154.784 430.784 155.528 430.784 156.488C430.784 157.64 431.384 158.504 432.584 159.08C433.832 159.656 435.752 160.232 438.344 160.808C441.32 161.576 443.744 162.344 445.616 163.112C447.488 163.832 449.12 165.032 450.512 166.712C451.952 168.344 452.696 170.552 452.744 173.336C452.744 175.688 452.072 177.8 450.728 179.672C449.432 181.496 447.536 182.936 445.04 183.992C442.592 185.048 439.736 185.576 436.472 185.576ZM484.973 144.392C489.581 144.392 493.277 145.928 496.061 149C498.845 152.024 500.237 156.2 500.237 161.528V185H487.997V163.184C487.997 160.496 487.301 158.408 485.909 156.92C484.517 155.432 482.645 154.688 480.293 154.688C477.941 154.688 476.069 155.432 474.677 156.92C473.285 158.408 472.589 160.496 472.589 163.184V185H460.277V131.72H472.589V150.224C473.837 148.448 475.541 147.032 477.701 145.976C479.861 144.92 482.285 144.392 484.973 144.392Z" fill="#1887C7"/>
<path d="M569.266 185H556.954L536.362 153.824V185H524.05V134.456H536.362L556.954 165.776V134.456H569.266V185ZM596.479 185.576C592.543 185.576 588.991 184.736 585.823 183.056C582.703 181.376 580.231 178.976 578.407 175.856C576.631 172.736 575.743 169.088 575.743 164.912C575.743 160.784 576.655 157.16 578.479 154.04C580.303 150.872 582.799 148.448 585.967 146.768C589.135 145.088 592.687 144.248 596.623 144.248C600.559 144.248 604.111 145.088 607.279 146.768C610.447 148.448 612.943 150.872 614.767 154.04C616.591 157.16 617.503 160.784 617.503 164.912C617.503 169.04 616.567 172.688 614.695 175.856C612.871 178.976 610.351 181.376 607.135 183.056C603.967 184.736 600.415 185.576 596.479 185.576ZM596.479 174.92C598.831 174.92 600.823 174.056 602.455 172.328C604.135 170.6 604.975 168.128 604.975 164.912C604.975 161.696 604.159 159.224 602.527 157.496C600.943 155.768 598.975 154.904 596.623 154.904C594.223 154.904 592.231 155.768 590.647 157.496C589.063 159.176 588.271 161.648 588.271 164.912C588.271 168.128 589.039 170.6 590.575 172.328C592.159 174.056 594.127 174.92 596.479 174.92ZM646.426 174.56V185H640.162C635.698 185 632.218 183.92 629.722 181.76C627.226 179.552 625.978 175.976 625.978 171.032V155.048H621.082V144.824H625.978V135.032H638.29V144.824H646.354V155.048H638.29V171.176C638.29 172.376 638.578 173.24 639.154 173.768C639.73 174.296 640.69 174.56 642.034 174.56H646.426ZM659.476 140.648C657.316 140.648 655.54 140.024 654.148 138.776C652.804 137.48 652.132 135.896 652.132 134.024C652.132 132.104 652.804 130.52 654.148 129.272C655.54 127.976 657.316 127.328 659.476 127.328C661.588 127.328 663.316 127.976 664.66 129.272C666.052 130.52 666.748 132.104 666.748 134.024C666.748 135.896 666.052 137.48 664.66 138.776C663.316 140.024 661.588 140.648 659.476 140.648ZM665.596 144.824V185H653.284V144.824H665.596ZM694.679 155.048H688.055V185H675.743V155.048H671.279V144.824H675.743V143.672C675.743 138.728 677.159 134.984 679.991 132.44C682.823 129.848 686.975 128.552 692.447 128.552C693.359 128.552 694.031 128.576 694.463 128.624V139.064C692.111 138.92 690.455 139.256 689.495 140.072C688.535 140.888 688.055 142.352 688.055 144.464V144.824H694.679V155.048ZM706.656 140.648C704.496 140.648 702.72 140.024 701.328 138.776C699.984 137.48 699.312 135.896 699.312 134.024C699.312 132.104 699.984 130.52 701.328 129.272C702.72 127.976 704.496 127.328 706.656 127.328C708.768 127.328 710.496 127.976 711.84 129.272C713.232 130.52 713.928 132.104 713.928 134.024C713.928 135.896 713.232 137.48 711.84 138.776C710.496 140.024 708.768 140.648 706.656 140.648ZM712.776 144.824V185H700.464V144.824H712.776ZM719.25 164.912C719.25 160.736 720.09 157.088 721.77 153.968C723.498 150.848 725.874 148.448 728.898 146.768C731.97 145.088 735.474 144.248 739.41 144.248C744.45 144.248 748.65 145.568 752.01 148.208C755.418 150.848 757.65 154.568 758.706 159.368H745.602C744.498 156.296 742.362 154.76 739.194 154.76C736.938 154.76 735.138 155.648 733.794 157.424C732.45 159.152 731.778 161.648 731.778 164.912C731.778 168.176 732.45 170.696 733.794 172.472C735.138 174.2 736.938 175.064 739.194 175.064C742.362 175.064 744.498 173.528 745.602 170.456H758.706C757.65 175.16 755.418 178.856 752.01 181.544C748.602 184.232 744.402 185.576 739.41 185.576C735.474 185.576 731.97 184.736 728.898 183.056C725.874 181.376 723.498 178.976 721.77 175.856C720.09 172.736 719.25 169.088 719.25 164.912ZM762.844 164.84C762.844 160.712 763.612 157.088 765.148 153.968C766.732 150.848 768.868 148.448 771.556 146.768C774.244 145.088 777.244 144.248 780.556 144.248C783.388 144.248 785.86 144.824 787.972 145.976C790.132 147.128 791.788 148.64 792.94 150.512V144.824H805.252V185H792.94V179.312C791.74 181.184 790.06 182.696 787.9 183.848C785.788 185 783.316 185.576 780.484 185.576C777.22 185.576 774.244 184.736 771.556 183.056C768.868 181.328 766.732 178.904 765.148 175.784C763.612 172.616 762.844 168.968 762.844 164.84ZM792.94 164.912C792.94 161.84 792.076 159.416 790.348 157.64C788.668 155.864 786.604 154.976 784.156 154.976C781.708 154.976 779.62 155.864 777.892 157.64C776.212 159.368 775.372 161.768 775.372 164.84C775.372 167.912 776.212 170.36 777.892 172.184C779.62 173.96 781.708 174.848 784.156 174.848C786.604 174.848 788.668 173.96 790.348 172.184C792.076 170.408 792.94 167.984 792.94 164.912ZM836.551 174.56V185H830.287C825.823 185 822.343 183.92 819.847 181.76C817.351 179.552 816.103 175.976 816.103 171.032V155.048H811.207V144.824H816.103V135.032H828.415V144.824H836.479V155.048H828.415V171.176C828.415 172.376 828.703 173.24 829.279 173.768C829.855 174.296 830.815 174.56 832.159 174.56H836.551ZM849.601 140.648C847.441 140.648 845.665 140.024 844.273 138.776C842.929 137.48 842.257 135.896 842.257 134.024C842.257 132.104 842.929 130.52 844.273 129.272C845.665 127.976 847.441 127.328 849.601 127.328C851.713 127.328 853.441 127.976 854.785 129.272C856.177 130.52 856.873 132.104 856.873 134.024C856.873 135.896 856.177 137.48 854.785 138.776C853.441 140.024 851.713 140.648 849.601 140.648ZM855.721 144.824V185H843.409V144.824H855.721ZM882.932 185.576C878.996 185.576 875.444 184.736 872.276 183.056C869.156 181.376 866.684 178.976 864.86 175.856C863.084 172.736 862.196 169.088 862.196 164.912C862.196 160.784 863.108 157.16 864.932 154.04C866.756 150.872 869.252 148.448 872.42 146.768C875.588 145.088 879.14 144.248 883.076 144.248C887.012 144.248 890.564 145.088 893.732 146.768C896.9 148.448 899.396 150.872 901.22 154.04C903.044 157.16 903.956 160.784 903.956 164.912C903.956 169.04 903.02 172.688 901.148 175.856C899.324 178.976 896.804 181.376 893.588 183.056C890.42 184.736 886.868 185.576 882.932 185.576ZM882.932 174.92C885.284 174.92 887.276 174.056 888.908 172.328C890.588 170.6 891.428 168.128 891.428 164.912C891.428 161.696 890.612 159.224 888.98 157.496C887.396 155.768 885.428 154.904 883.076 154.904C880.676 154.904 878.684 155.768 877.1 157.496C875.516 159.176 874.724 161.648 874.724 164.912C874.724 168.128 875.492 170.6 877.028 172.328C878.612 174.056 880.58 174.92 882.932 174.92ZM934.967 144.392C939.671 144.392 943.415 145.928 946.199 149C949.031 152.024 950.447 156.2 950.447 161.528V185H938.207V163.184C938.207 160.496 937.511 158.408 936.119 156.92C934.727 155.432 932.855 154.688 930.503 154.688C928.151 154.688 926.279 155.432 924.887 156.92C923.495 158.408 922.799 160.496 922.799 163.184V185H910.487V144.824H922.799V150.152C924.047 148.376 925.727 146.984 927.839 145.976C929.951 144.92 932.327 144.392 934.967 144.392Z" fill="#FF7704"/>
<g clip-path="url(#clip1)">
<path fill-rule="evenodd" clip-rule="evenodd" d="M621.115 41.4445L864.848 285.178L285.883 1287.39L42.3272 1043.84" fill="white" fill-opacity="0.1"/>
<path fill-rule="evenodd" clip-rule="evenodd" d="M128.672 27.255L369.786 268.208L-33.8693 967.65L-276.888 724.631L-276.885 724.625L-518.731 482.779L60.0566 -519.613L303.79 -275.88L128.673 27.2554L128.672 27.255Z" fill="white" fill-opacity="0.1"/>
</g>
</g>
<defs>
<linearGradient id="paint0_linear" x1="1280" y1="3.8147e-05" x2="496.217" y2="810.726" gradientUnits="userSpaceOnUse">
<stop stop-color="#12154C"/>
<stop offset="1" stop-color="#172671"/>
</linearGradient>
<clipPath id="clip0">
<rect width="1280" height="320" fill="white"/>
</clipPath>
<clipPath id="clip1">
<rect width="1487.75" height="1487.75" fill="white" transform="translate(173 -668) rotate(45)"/>
</clipPath>
</defs>
</svg>
