<svg width="120" height="120" viewBox="0 0 120 120" fill="none" xmlns="http://www.w3.org/2000/svg">
<path d="M54.9243 120C63.9798 120 71.5549 113.545 73.2944 105H36.5543C38.2947 113.545 45.8698 120 54.9243 120V120Z" fill="#1887C7"/>
<path d="M89.9844 59.9955C89.9643 59.9955 89.9442 60.0001 89.924 60.0001C70.6293 60.0001 54.9243 44.2997 54.9243 25.0004C54.9243 19.6949 56.1447 14.6796 58.2697 10.1697C57.1692 10.0654 56.0541 10.0004 54.9243 10.0004C35.5948 10.0004 19.9246 25.6696 19.9246 45.0001V58.9399C19.9246 68.8349 15.5896 78.1751 7.98433 84.6049C5.44923 86.7701 4.32405 90.2198 5.23409 93.5853C6.29427 97.5001 10.1642 100 14.2246 100H95.5994C99.8593 100 103.875 97.2401 104.739 93.0652C105.409 89.8353 104.259 86.6099 101.754 84.5051C94.4842 78.4104 90.2792 69.4547 89.9844 59.9955V59.9955Z" fill="#1887C7"/>
<path d="M114.924 25.0003C114.924 38.8074 103.732 49.9997 89.9241 49.9997C76.117 49.9997 64.9247 38.8074 64.9247 25.0003C64.9247 11.1932 76.117 0 89.9241 0C103.732 0 114.924 11.1932 114.924 25.0003Z" fill="#FF7704"/>
</svg>
